<svg xmlns="http://www.w3.org/2000/svg" viewBox="0 0 24 24" width="100%" height="100%">
  <defs>
    <!-- Primary Sage Green gradient -->
    <linearGradient id="primaryGrad" x1="0%" y1="0%" x2="100%" y2="100%">
      <stop offset="0%" stop-color="#86A788" />
      <stop offset="100%" stop-color="#657d66" />
    </linearGradient>
    <!-- Secondary Warm Slate gradient -->
    <linearGradient id="secondaryGrad" x1="0%" y1="0%" x2="100%" y2="100%">
      <stop offset="0%" stop-color="#64748b" />
      <stop offset="100%" stop-color="#334155" />
    </linearGradient>
  </defs>
  
  <!-- Book (Secondary Warm Slate) -->
  <path d="M12 22s-7-2.5-10-6V7c3 3.5 10 3.5 10 3.5s7 0 10-3.5v9c-3 3.5-10 6-10 6Z" fill="url(#secondaryGrad)" />
  <path d="M12 10.5v11.5" stroke="#e2e8f0" stroke-width="1.5" opacity="0.4" />
  
  <!-- Graduation Cap (Primary Sage Green) -->
  <path d="M12 1L1 6.5 12 12l11-5.5L12 1Z" fill="url(#primaryGrad)" />
  <path d="M4.5 8.5v5c0 2.5 3 4.5 7.5 4.5s7.5-2 7.5-4.5v-5" fill="none" stroke="url(#primaryGrad)" stroke-width="2.5" stroke-linecap="round" />
  <path d="M21 7.5v6" stroke="#86A788" stroke-width="2.5" stroke-linecap="round" />
</svg>
